<svg width="24" height="24" viewBox="0 0 24 24" fill="none" xmlns="http://www.w3.org/2000/svg">
<path d="M11.9999 8.14293C11.4934 8.14293 10.9918 8.24269 10.5238 8.43653C10.0559 8.63037 9.63066 8.91449 9.27249 9.27266C8.91432 9.63083 8.63021 10.056 8.43637 10.524C8.24253 10.992 8.14276 11.4935 8.14276 12.0001C8.14276 12.5066 8.24253 13.0082 8.43637 13.4761C8.63021 13.9441 8.91432 14.3693 9.27249 14.7275C9.63066 15.0857 10.0559 15.3698 10.5238 15.5636C10.9918 15.7574 11.4934 15.8572 11.9999 15.8572C13.0229 15.8572 14.004 15.4508 14.7273 14.7275C15.4507 14.0041 15.857 13.023 15.857 12.0001C15.857 10.9771 15.4507 9.99601 14.7273 9.27266C14.004 8.5493 13.0229 8.14293 11.9999 8.14293ZM9.42848 12.0001C9.42848 11.6624 9.49499 11.328 9.62421 11.016C9.75344 10.704 9.94285 10.4206 10.1816 10.1818C10.4204 9.94302 10.7039 9.75361 11.0159 9.62438C11.3278 9.49515 11.6622 9.42864 11.9999 9.42864C12.3376 9.42864 12.672 9.49515 12.9839 9.62438C13.2959 9.75361 13.5794 9.94302 13.8182 10.1818C14.057 10.4206 14.2464 10.704 14.3756 11.016C14.5048 11.328 14.5713 11.6624 14.5713 12.0001C14.5713 12.6821 14.3004 13.3361 13.8182 13.8183C13.3359 14.3006 12.6819 14.5715 11.9999 14.5715C11.3179 14.5715 10.6639 14.3006 10.1816 13.8183C9.69939 13.3361 9.42848 12.6821 9.42848 12.0001ZM18.6085 19.1958L17.1273 18.5452C16.9165 18.4536 16.6872 18.4126 16.4577 18.4254C16.2282 18.4382 16.0049 18.5045 15.8056 18.6189C15.4053 18.8504 15.1499 19.2592 15.0993 19.7195L14.921 21.3309C14.9034 21.493 14.8361 21.6456 14.7281 21.7678C14.6202 21.89 14.4771 21.9757 14.3185 22.0132C12.7934 22.3758 11.2047 22.3758 9.67962 22.0132C9.52114 21.9756 9.3782 21.8898 9.27046 21.7676C9.16271 21.6454 9.09545 21.4929 9.0779 21.3309L8.89962 19.7221C8.87408 19.4956 8.7958 19.2783 8.67105 19.0877C8.54631 18.897 8.37857 18.7382 8.18133 18.6241C7.9842 18.5105 7.76322 18.4447 7.53608 18.4319C7.30895 18.4191 7.08198 18.4597 6.87333 18.5504L5.39219 19.2009C5.24246 19.2667 5.07599 19.2843 4.91582 19.2513C4.75564 19.2183 4.6097 19.1363 4.49819 19.0166C3.433 17.8736 2.63982 16.5047 2.1779 15.0121C2.12892 14.8552 2.13018 14.6869 2.1815 14.5308C2.23283 14.3746 2.33167 14.2384 2.46419 14.1412L3.77305 13.1744C3.95731 13.039 4.10712 12.8621 4.21038 12.6581C4.31365 12.4541 4.36745 12.2287 4.36745 12.0001C4.36745 11.7714 4.31365 11.546 4.21038 11.342C4.10712 11.138 3.95731 10.9612 3.77305 10.8258L2.46419 9.8615C2.3315 9.76422 2.23255 9.62788 2.18121 9.47156C2.12988 9.31525 2.12872 9.14679 2.1779 8.98978C2.63982 7.49809 3.43369 6.13042 4.4999 4.9895C4.61152 4.87002 4.75751 4.78818 4.91767 4.75532C5.07784 4.72245 5.24426 4.74019 5.3939 4.80607L6.86819 5.45493C7.07796 5.54521 7.30595 5.58514 7.53392 5.57151C7.76189 5.55788 7.9835 5.49108 8.18103 5.37645C8.37855 5.26182 8.54649 5.10254 8.67142 4.91136C8.79635 4.72019 8.87479 4.50242 8.90048 4.2755L9.08048 2.66578C9.09823 2.5019 9.16689 2.34769 9.27682 2.22485C9.38675 2.102 9.53241 2.0167 9.69333 1.98093C10.4476 1.81293 11.2202 1.72407 12.011 1.71436C12.7842 1.72293 13.5539 1.81293 14.3082 1.98093C14.4692 2.01675 14.615 2.10218 14.7249 2.22519C14.8349 2.3482 14.9035 2.5026 14.921 2.66664L15.1002 4.27636C15.1386 4.63341 15.3076 4.96369 15.5746 5.20383C15.8416 5.44396 16.1879 5.57703 16.547 5.5775C16.7468 5.5775 16.9448 5.5355 17.1299 5.45407L18.6042 4.80521C18.7538 4.73933 18.9203 4.7216 19.0804 4.75446C19.2406 4.78732 19.3866 4.86916 19.4982 4.98864C20.5641 6.12965 21.3577 7.49731 21.8193 8.98893C21.8684 9.14573 21.8673 9.31394 21.8161 9.47008C21.7649 9.62621 21.6663 9.76245 21.5339 9.85979L20.2268 10.8258C19.8539 11.1001 19.6285 11.5364 19.6285 12.0001C19.6285 12.4629 19.8539 12.8992 20.2276 13.1744L21.5356 14.1395C21.8065 14.3401 21.9213 14.6898 21.8219 15.0112C21.3594 16.5023 20.5663 17.8697 19.5016 19.0115C19.3901 19.1311 19.2442 19.2131 19.084 19.2461C18.9238 19.2792 18.7582 19.2616 18.6085 19.1958ZM13.9388 19.0261C14.1431 18.3854 14.5785 17.8437 15.1602 17.5064C15.5343 17.2908 15.9538 17.166 16.3849 17.142C16.816 17.1181 17.2468 17.1956 17.6425 17.3684L18.7945 17.8741C19.5339 17.0169 20.1065 16.0291 20.483 14.9615L19.4639 14.2098C19.1166 13.9554 18.834 13.6219 18.6391 13.238C18.4442 12.8541 18.3424 12.4297 18.3419 11.9992C18.3419 11.1189 18.7679 10.3021 19.4622 9.79121L19.4639 9.79036L20.4813 9.03864C20.1045 7.97131 19.5315 6.98379 18.7919 6.12693L17.6493 6.62921L17.6476 6.63007C17.2996 6.78436 16.925 6.86321 16.5453 6.86321C15.87 6.86258 15.2186 6.6128 14.716 6.16172C14.2133 5.71065 13.8948 5.08999 13.8213 4.41864V4.41693L13.6816 3.1655C13.1302 3.0629 12.571 3.00756 12.0102 3.00007C11.433 3.00807 10.8688 3.06321 10.3173 3.1655L10.1776 4.41778C10.1295 4.84501 9.98189 5.25501 9.74658 5.61482C9.51127 5.97464 9.19484 6.27424 8.82272 6.48956C8.4506 6.70488 8.03316 6.82991 7.60394 6.85462C7.17473 6.87932 6.7457 6.80299 6.35133 6.63178L5.20619 6.12778C4.46659 6.98465 3.89362 7.97216 3.51676 9.0395L4.53676 9.79121C4.88317 10.0461 5.16478 10.3788 5.35887 10.7626C5.55297 11.1464 5.6541 11.5704 5.6541 12.0005C5.6541 12.4306 5.55297 12.8546 5.35887 13.2384C5.16478 13.6222 4.88317 13.9549 4.53676 14.2098L3.51676 14.9624C3.89278 16.0314 4.46549 17.0207 5.20533 17.8792L6.35819 17.3735C6.75144 17.2018 7.17949 17.1248 7.60793 17.1486C8.03637 17.1724 8.45325 17.2964 8.82505 17.5106C9.19655 17.7253 9.51253 18.024 9.74758 18.3829C9.98264 18.7418 10.1302 19.1509 10.1785 19.5772V19.5815L10.3173 20.8364C11.429 21.0549 12.5716 21.0549 13.6833 20.8364L13.8222 19.5789C13.8428 19.3892 13.8822 19.2049 13.9405 19.0261" fill="currentColor" />
</svg>
