<svg width="49" height="49" viewBox="0 0 49 49" fill="none" xmlns="http://www.w3.org/2000/svg">
<path d="M24.8895 37.5107C26.1817 37.4223 27.4631 37.2159 28.7176 36.8941C30.2672 37.3599 31.9027 37.4653 33.4992 37.2024C33.5629 37.1946 33.627 37.1898 33.6911 37.1881C34.2607 37.1881 35.008 37.5147 36.0983 38.2028V37.0717C36.0987 36.8746 36.152 36.6813 36.2525 36.5118C36.3531 36.3424 36.4972 36.2029 36.6699 36.108C37.1449 35.8399 37.5839 35.5384 37.9868 35.2036C39.5752 33.8765 40.4715 32.1043 40.4715 30.2301C40.4715 29.6115 40.3735 28.9949 40.1795 28.4069C40.6598 27.525 41.0457 26.595 41.331 25.6322C42.2498 26.99 42.7439 28.5927 42.75 30.2301C42.75 32.7781 41.5495 35.1546 39.469 36.892C39.1206 37.182 38.7565 37.4487 38.3768 37.6924V40.3425C38.3768 41.253 37.311 41.7777 36.5597 41.2347C35.8478 40.7108 35.112 40.2203 34.3547 39.7647C34.1359 39.6385 33.9095 39.526 33.6768 39.4278C33.0448 39.5214 32.4068 39.5684 31.7679 39.5687C29.175 39.5687 26.778 38.799 24.8895 37.5107ZM11.1675 32.2125C7.89263 29.4706 6 25.7323 6 21.7265C6 13.5435 13.8237 7 23.3766 7C32.9316 7 40.7573 13.5415 40.7573 21.7265C40.7573 29.9116 32.9316 36.451 23.3766 36.451C22.3136 36.4521 21.2521 36.3702 20.2018 36.206C19.7527 36.3102 17.9519 37.3657 15.359 39.2338C14.4198 39.9117 13.0887 39.2583 13.0887 38.117V33.5988C12.4162 33.1831 11.7748 32.7191 11.1695 32.2105M20.2651 33.4192C20.3441 33.4192 20.4237 33.4253 20.504 33.4375C21.4432 33.5927 22.4007 33.671 23.3766 33.6723C31.4473 33.6723 37.9051 28.2721 37.9051 21.7245C37.9051 15.1789 31.4473 9.78075 23.3787 9.78075C15.31 9.78075 8.84812 15.1789 8.84812 21.7245C8.84812 24.8891 10.359 27.8699 13.0254 30.1015C13.6978 30.6622 14.43 31.1658 15.2222 31.6123C15.4371 31.7315 15.6165 31.9057 15.742 32.117C15.8676 32.3283 15.9348 32.5691 15.9368 32.8148V35.42C17.9887 34.0623 19.3382 33.4192 20.2651 33.4192Z" fill="url(#paint0_linear_73_5221)"/>
<path d="M16.335 24.2275C16.9441 24.2275 17.5284 23.9855 17.9591 23.5548C18.3898 23.1241 18.6318 22.5398 18.6318 21.9307C18.6318 21.3215 18.3898 20.7373 17.9591 20.3065C17.5284 19.8758 16.9441 19.6338 16.335 19.6338C15.7258 19.6338 15.1416 19.8758 14.7108 20.3065C14.2801 20.7373 14.0381 21.3215 14.0381 21.9307C14.0381 22.5398 14.2801 23.1241 14.7108 23.5548C15.1416 23.9855 15.7258 24.2275 16.335 24.2275Z" fill="url(#paint1_linear_73_5221)"/>
<path d="M23.8013 24.2275C24.4104 24.2275 24.9947 23.9855 25.4254 23.5548C25.8562 23.1241 26.0981 22.5398 26.0981 21.9307C26.0981 21.3215 25.8562 20.7373 25.4254 20.3065C24.9947 19.8758 24.4104 19.6338 23.8013 19.6338C23.1921 19.6338 22.6079 19.8758 22.1771 20.3065C21.7464 20.7373 21.5044 21.3215 21.5044 21.9307C21.5044 22.5398 21.7464 23.1241 22.1771 23.5548C22.6079 23.9855 23.1921 24.2275 23.8013 24.2275Z" fill="url(#paint2_linear_73_5221)"/>
<path d="M31.2656 24.2275C31.8748 24.2275 32.459 23.9855 32.8898 23.5548C33.3205 23.1241 33.5625 22.5398 33.5625 21.9307C33.5625 21.3215 33.3205 20.7373 32.8898 20.3065C32.459 19.8758 31.8748 19.6338 31.2656 19.6338C30.6565 19.6338 30.0722 19.8758 29.6415 20.3065C29.2107 20.7373 28.9688 21.3215 28.9688 21.9307C28.9688 22.5398 29.2107 23.1241 29.6415 23.5548C30.0722 23.9855 30.6565 24.2275 31.2656 24.2275Z" fill="url(#paint3_linear_73_5221)"/>
<defs>
<linearGradient id="paint0_linear_73_5221" x1="24.375" y1="7" x2="24.375" y2="41.4552" gradientUnits="userSpaceOnUse">
<stop stop-color="#C8C8C8"/>
<stop offset="1" stop-color="#707070"/>
</linearGradient>
<linearGradient id="paint1_linear_73_5221" x1="24.375" y1="6.99996" x2="24.375" y2="41.4551" gradientUnits="userSpaceOnUse">
<stop stop-color="#949494"/>
<stop offset="1" stop-color="#AAB2BD"/>
</linearGradient>
<linearGradient id="paint2_linear_73_5221" x1="24.375" y1="6.99996" x2="24.375" y2="41.4551" gradientUnits="userSpaceOnUse">
<stop stop-color="#A4A4A4"/>
<stop offset="1" stop-color="#8F8F8F"/>
</linearGradient>
<linearGradient id="paint3_linear_73_5221" x1="24.375" y1="6.99791" x2="24.375" y2="41.4531" gradientUnits="userSpaceOnUse">
<stop stop-color="#BCBCBC"/>
<stop offset="1" stop-color="#585858"/>
</linearGradient>
</defs>
</svg>
