<svg width="18" height="18" viewBox="0 0 18 18" fill="none" xmlns="http://www.w3.org/2000/svg">
<circle cx="9" cy="9" r="8.5" fill="#767676" stroke="#D9D9D9"/>
<path d="M8.22656 10.1016L12.1992 6.12891C12.293 6.03516 12.4023 5.98828 12.5273 5.98828C12.6523 5.98828 12.7617 6.03516 12.8555 6.12891C12.9492 6.22266 12.9961 6.33406 12.9961 6.46312C12.9961 6.59219 12.9492 6.70344 12.8555 6.79688L8.55468 11.1094C8.46093 11.2031 8.35156 11.25 8.22656 11.25C8.10156 11.25 7.99218 11.2031 7.89843 11.1094L5.88281 9.09375C5.78906 9 5.74406 8.88875 5.74781 8.76C5.75156 8.63125 5.80046 8.51984 5.89452 8.42578C5.98859 8.33172 6.09999 8.28484 6.22874 8.28516C6.35749 8.28547 6.46874 8.33234 6.56249 8.42578L8.22656 10.1016Z" fill="white"/>
</svg>
