<svg width="54" height="54" viewBox="0 0 54 54" fill="none" xmlns="http://www.w3.org/2000/svg">
<path d="M11.25 45V40.5H42.75V45H11.25ZM11.25 37.125L8.38125 19.0688C8.30625 19.0688 8.2215 19.0785 8.127 19.098C8.0325 19.1175 7.9485 19.1265 7.875 19.125C6.9375 19.125 6.141 18.7965 5.4855 18.1395C4.83 17.4825 4.5015 16.686 4.5 15.75C4.4985 14.814 4.827 14.0175 5.4855 13.3605C6.144 12.7035 6.9405 12.375 7.875 12.375C8.8095 12.375 9.60675 12.7035 10.2667 13.3605C10.9267 14.0175 11.2545 14.814 11.25 15.75C11.25 16.0125 11.2215 16.2563 11.1645 16.4813C11.1075 16.7063 11.0422 16.9125 10.9687 17.1L18 20.25L25.0312 10.6313C24.6187 10.3313 24.2812 9.9375 24.0187 9.45001C23.7562 8.9625 23.625 8.43751 23.625 7.87501C23.625 6.93751 23.9535 6.14026 24.6105 5.48326C25.2675 4.82626 26.064 4.49851 27 4.50001C27.936 4.50151 28.7332 4.83 29.3917 5.4855C30.0502 6.14101 30.378 6.93751 30.375 7.87501C30.375 8.43751 30.2437 8.9625 29.9812 9.45001C29.7187 9.9375 29.3812 10.3313 28.9688 10.6313L36 20.25L43.0312 17.1C42.9562 16.9125 42.8903 16.7063 42.8333 16.4813C42.7763 16.2563 42.7485 16.0125 42.75 15.75C42.75 14.8125 43.0785 14.0153 43.7355 13.3583C44.3925 12.7013 45.189 12.3735 46.125 12.375C47.061 12.3765 47.8582 12.705 48.5168 13.3605C49.1753 14.016 49.503 14.8125 49.5 15.75C49.497 16.6875 49.1693 17.4848 48.5168 18.1418C47.8643 18.7988 47.067 19.1265 46.125 19.125C46.05 19.125 45.966 19.116 45.873 19.098C45.78 19.08 45.6953 19.0703 45.6188 19.0688L42.75 37.125H11.25Z" fill="black"/>
</svg>
