<svg width="25" height="25" viewBox="0 0 25 25" fill="none" xmlns="http://www.w3.org/2000/svg">
<path d="M5.20833 20.8333V18.7499H19.7917V20.8333H5.20833ZM5.20833 17.1874L3.88021 8.82805C3.84549 8.82805 3.80625 8.83256 3.7625 8.84159C3.71875 8.85062 3.67986 8.85478 3.64583 8.85409C3.21181 8.85409 2.84306 8.702 2.53958 8.39784C2.23611 8.09367 2.08403 7.72492 2.08333 7.29159C2.08264 6.85825 2.23472 6.4895 2.53958 6.18534C2.84445 5.88117 3.2132 5.72909 3.64583 5.72909C4.07847 5.72909 4.44757 5.88117 4.75313 6.18534C5.05868 6.4895 5.21042 6.85825 5.20833 7.29159C5.20833 7.41312 5.19514 7.52596 5.16875 7.63013C5.14236 7.7343 5.11215 7.82978 5.07813 7.91659L8.33333 9.37492L11.5885 4.9218C11.3976 4.78291 11.2413 4.60062 11.1198 4.37492C10.9983 4.14923 10.9375 3.90617 10.9375 3.64575C10.9375 3.21173 11.0896 2.84263 11.3938 2.53846C11.6979 2.2343 12.0667 2.08256 12.5 2.08325C12.9333 2.08395 13.3024 2.23603 13.6073 2.5395C13.9122 2.84298 14.0639 3.21173 14.0625 3.64575C14.0625 3.90617 14.0017 4.14923 13.8802 4.37492C13.7587 4.60062 13.6024 4.78291 13.4115 4.9218L16.6667 9.37492L19.9219 7.91659C19.8872 7.82978 19.8566 7.7343 19.8302 7.63013C19.8038 7.52596 19.791 7.41312 19.7917 7.29159C19.7917 6.85756 19.9438 6.48846 20.2479 6.1843C20.5521 5.88013 20.9208 5.72839 21.3542 5.72909C21.7875 5.72978 22.1566 5.88187 22.4615 6.18534C22.7663 6.48881 22.9181 6.85756 22.9167 7.29159C22.9153 7.72562 22.7635 8.09471 22.4615 8.39888C22.1594 8.70305 21.7903 8.85478 21.3542 8.85409C21.3194 8.85409 21.2806 8.84992 21.2375 8.84159C21.1944 8.83325 21.1552 8.82874 21.1198 8.82805L19.7917 17.1874H5.20833Z" fill="white"/>
</svg>
