<svg width="21" height="21" viewBox="0 0 21 21" fill="none" xmlns="http://www.w3.org/2000/svg">
<path d="M4.59375 2.625C4.47198 2.62501 4.35261 2.65889 4.249 2.72287C4.14539 2.78684 4.06162 2.87838 4.00706 2.98725L1.38206 8.23725C1.32529 8.35029 1.3024 8.47732 1.31614 8.60306C1.32988 8.7288 1.37966 8.84789 1.4595 8.946L9.99075 19.446C10.0523 19.5217 10.1299 19.5827 10.218 19.6247C10.3061 19.6666 10.4024 19.6883 10.5 19.6883C10.5976 19.6883 10.6939 19.6666 10.782 19.6247C10.8701 19.5827 10.9477 19.5217 11.0092 19.446L19.5405 8.946C19.6206 8.84803 19.6706 8.729 19.6845 8.60326C19.6985 8.47751 19.6758 8.35041 19.6193 8.23725L16.9943 2.98725C16.9396 2.87818 16.8556 2.78651 16.7518 2.72252C16.6479 2.65853 16.5282 2.62476 16.4063 2.625H4.59375ZM3.03056 7.875L4.99931 3.9375H7.68994L6.70556 7.875H3.03056ZM3.34688 9.1875H6.73706L8.85413 15.9653L3.34688 9.1875ZM8.11125 9.1875H12.8888L10.5 16.8302L8.11125 9.1875ZM14.2643 9.1875H17.6531L12.1459 15.9653L14.2643 9.1875ZM17.9694 7.875H14.2944L13.3101 3.9375H16.0007L17.9694 7.875ZM12.9413 7.875H8.05875L9.04313 3.9375H11.9569L12.9413 7.875Z" fill="white"/>
</svg>
