<svg width="16" height="16" viewBox="0 0 16 16" fill="none" xmlns="http://www.w3.org/2000/svg">
<path fill-rule="evenodd" clip-rule="evenodd" d="M1.56332 1.49669C1.66284 1.41025 1.78574 1.35524 1.91651 1.33863C2.04727 1.32202 2.18003 1.34454 2.29799 1.40336L14.298 7.40336C14.4089 7.45865 14.5023 7.54377 14.5675 7.64917C14.6327 7.75457 14.6673 7.87607 14.6673 8.00002C14.6673 8.12398 14.6327 8.24548 14.5675 8.35088C14.5023 8.45627 14.4089 8.5414 14.298 8.59669L2.29799 14.5967C2.18003 14.6557 2.04722 14.6784 1.91635 14.6619C1.78549 14.6454 1.66246 14.5905 1.56282 14.5041C1.46319 14.4177 1.39143 14.3036 1.35663 14.1764C1.32183 14.0492 1.32555 13.9145 1.36732 13.7894L3.07532 8.66669H6.66666C6.84347 8.66669 7.01304 8.59645 7.13806 8.47143C7.26309 8.3464 7.33332 8.17684 7.33332 8.00002C7.33332 7.82321 7.26309 7.65364 7.13806 7.52862C7.01304 7.4036 6.84347 7.33336 6.66666 7.33336H3.07532L1.36666 2.21069C1.3251 2.08563 1.32154 1.95106 1.35642 1.82398C1.39131 1.6969 1.46374 1.58301 1.56332 1.49669Z" fill="white"/>
</svg>
