<svg width="29" height="29" viewBox="0 0 29 29" fill="none" xmlns="http://www.w3.org/2000/svg">
<path fill-rule="evenodd" clip-rule="evenodd" d="M26.5834 14.5001C26.5834 7.82646 21.1737 2.41675 14.5001 2.41675C7.82646 2.41675 2.41675 7.82646 2.41675 14.5001C2.41675 21.1737 7.82646 26.5834 14.5001 26.5834C21.1737 26.5834 26.5834 21.1737 26.5834 14.5001ZM14.5001 8.45841C14.8206 8.45841 15.1279 8.58572 15.3545 8.81233C15.5811 9.03893 15.7084 9.34628 15.7084 9.66675V15.7084C15.7084 16.0289 15.5811 16.3362 15.3545 16.5628C15.1279 16.7894 14.8206 16.9167 14.5001 16.9167C14.1796 16.9167 13.8723 16.7894 13.6457 16.5628C13.4191 16.3362 13.2917 16.0289 13.2917 15.7084V9.66675C13.2917 9.34628 13.4191 9.03893 13.6457 8.81233C13.8723 8.58572 14.1796 8.45841 14.5001 8.45841ZM13.2917 19.3334C13.2917 19.0129 13.4191 18.7056 13.6457 18.479C13.8723 18.2524 14.1796 18.1251 14.5001 18.1251H14.5097C14.8302 18.1251 15.1376 18.2524 15.3642 18.479C15.5908 18.7056 15.7181 19.0129 15.7181 19.3334C15.7181 19.6539 15.5908 19.9612 15.3642 20.1878C15.1376 20.4144 14.8302 20.5417 14.5097 20.5417H14.5001C14.1796 20.5417 13.8723 20.4144 13.6457 20.1878C13.4191 19.9612 13.2917 19.6539 13.2917 19.3334Z" fill="#F3A10C"/>
</svg>
